# xmcd
#
# Track frame offsets:
#	150
#	14225
#	28550
#	40675
#	54987
#	72250
#	84037
#	95475
#	104500
#	114650
#	127325
#	140137
#	152775
#	166175
#
# Disc length: 2353 seconds
#
# Revision: 1
# Processed by: cddbd v1.5.1PL0 Copyright (c) Steve Scherf et al.
# Submitted via: CDex 1.50Beta5
#
DISCID=be092f0e
DTITLE=さまざまなアーティスト - SKY (GRN-2076)
DYEAR=1900
DGENRE=Pop
TTITLE0=モンキーズ/ディドリーム・ビリーバー
TTITLE1=サイモン&ガーファンクル/スカボロー・フェア
TTITLE2=ママス&パパス/夢のカリフォルニア
TTITLE3=ビートルズ/涙の乗車券
TTITLE4=ザ・フー/恋のピンチヒッター
TTITLE5=ジーン・ヴィンセント/ビー・バップ・ア・ルーラ
TTITLE6=パディ・ホリー/ペギー・スー
TTITLE7=エディ・コクラン/サマータイム・ブルース
TTITLE8=サーチャーズ/ピンと針
TTITLE9=エヴァリー・ブラザース/ボーリング・グリーン
TTITLE10=ビーチ・ボーイズ/ドント・ウォリー・ベイビー
TTITLE11=テンプテーションズ/雨に願いを
TTITLE12=ロイ・オービソン/オー・プリティ・ウーマン
TTITLE13=リック・ネルソン/ロンサム・タウン
EXTD=
EXTT0=
EXTT1=
EXTT2=
EXTT3=
EXTT4=
EXTT5=
EXTT6=
EXTT7=
EXTT8=
EXTT9=
EXTT10=
EXTT11=
EXTT12=
EXTT13=
PLAYORDER=
